MP4 container for easy playback on PS3 and other hardware. Can easily be remuxed to MKV if you prefer.


Screenshots: http://img580.imageshack.us/img580/8024/phineasandferbthemoviea.jpg

[code]
General
Complete name                    : Phineas.and.Ferb.The.Movie.Across.the.2nd.Dimension.2011.720p.HDTV.x264-drngr.mp4
Format                           : MPEG-4
Format profile                   : Base Media
Codec ID                         : isom
File size                        : 2.19 GiB
Duration                         : 1h 18mn
Overall bit rate                 : 4 008 Kbps
Encoded date                     : UTC 2011-08-22 05:33:12
Tagged date                      : UTC 2011-08-22 05:33:12

Video
ID                               : 1
Format                           : AVC
Format/Info                      : Advanced Video Codec
Format profile                   : High@L4.1
Format settings, CABAC           : Yes
Format settings, ReFrames        : 9 frames
Codec ID                         : avc1
Codec ID/Info                    : Advanced Video Coding
Duration                         : 1h 18mn
Bit rate mode                    : Variable
Bit rate                         : 3 621 Kbps
Maximum bit rate                 : 19.8 Mbps
Width                            : 1 280 pixels
Height                           : 720 pixels
Display aspect ratio             : 16:9
Frame rate mode                  : Constant
Frame rate                       : 23.976 fps
Color space                      : YUV
Chroma subsampling               : 4:2:0
Bit depth                        : 8 bits
Scan type                        : Progressive
Bits/(Pixel*Frame)               : 0.164
Stream size                      : 1.98 GiB (90%)
Writing library                  : x264 core 115 r1995 c1e60b9
Encoding settings                : cabac=1 / ref=9 / deblock=1:0:0 / analyse=0x3:0x133 / me=umh / subme=10 / psy=1 / psy_rd=1.00:0.00 / mixed_ref=1 / me_range=24 / chroma_me=1 / trellis=2 / 8x8dct=1 / cqm=0 / deadzone=21,11 / fast_pskip=1 / chroma_qp_offset=-2 / threads=6 / sliced_threads=0 / nr=0 / decimate=1 / interlaced=0 / bluray_compat=0 / constrained_intra=0 / bframes=8 / b_pyramid=2 / b_adapt=2 / b_bias=0 / direct=3 / weightb=1 / open_gop=0 / weightp=2 / keyint=250 / keyint_min=23 / scenecut=40 / intra_refresh=0 / rc_lookahead=60 / rc=2pass / mbtree=1 / bitrate=3621 / ratetol=1.0 / qcomp=0.60 / qpmin=0 / qpmax=69 / qpstep=4 / cplxblur=20.0 / qblur=0.5 / ip_ratio=1.40 / aq=1:1.00
Language                         : English
Encoded date                     : UTC 2011-08-21 23:45:36
Tagged date                      : UTC 2011-08-22 05:34:07
Color primaries                  : BT.709-5, BT.1361, IEC 61966-2-4, SMPTE RP177
Transfer characteristics         : BT.709-5, BT.1361
Matrix coefficients              : BT.709-5, BT.1361, IEC 61966-2-4 709, SMPTE RP177

Audio
ID                               : 2
Format                           : AC-3
Format/Info                      : Audio Coding 3
Mode extension                   : CM (complete main)
Codec ID                         : ac-3
Duration                         : 1h 18mn
Bit rate mode                    : Constant
Bit rate                         : 384 Kbps
Channel(s)                       : 6 channels
Channel positions                : Front: L C R, Side: L R, LFE
Sampling rate                    : 48.0 KHz
Bit depth                        : 16 bits
Stream size                      : 215 MiB (10%)
Title                            : Dolby 5.1
Language                         : English
Encoded date                     : UTC 2011-08-22 05:33:57
Tagged date                      : UTC 2011-08-22 05:34:07

Text
ID                               : 3
Format                           : Timed text
Codec ID                         : tx3g
Duration                         : 1h 17mn
Bit rate mode                    : Variable
Bit rate                         : 154 bps
Stream size                      : 87.7 KiB (0%)
Title                            : Closed Captions
Language                         : English
Encoded date                     : UTC 2011-08-22 05:34:07
Tagged date                      : UTC 2011-08-22 05:34:07
[/code]